<svg width="160" height="32" viewBox="0 0 160 32" fill="none" xmlns="http://www.w3.org/2000/svg">
<g clip-path="url(#clip0_4576_37518)">
<path d="M159.985 29.7489C159.696 29.1767 158.736 27.1012 158.799 24.3254V1.4531C158.799 1.32498 158.691 1.21393 158.555 1.21393H154.11C153.983 1.21393 153.928 1.37622 154.037 1.44455C154.499 1.75202 154.825 2.12779 155.024 2.59754C155.232 3.07583 155.287 4.02389 155.296 4.98047V14.8194C154.028 12.3426 151.312 10.959 148.623 10.8736C146.749 10.8138 144.821 11.4971 143.363 12.6416C140.846 14.6145 139.85 17.3902 139.868 20.4649C139.905 26.9901 144.323 30.1417 149.04 30.1161C152.625 30.099 154.417 27.8272 155.305 26.4351V29.6805C155.305 29.8086 155.413 29.9197 155.549 29.9197H159.868C159.967 29.9197 160.031 29.8258 159.985 29.7404V29.7489ZM149.239 27.9894C145.554 28.0065 143.49 24.9404 143.463 20.5419C143.435 16.1433 145.473 13.0515 149.157 13.0344C152.842 13.0173 155.404 16.0067 155.431 20.4479C155.459 24.8892 152.924 27.9724 149.239 27.9894Z" fill="#061F2F"/>
<path d="M97.5343 11.386C97.3532 11.8899 96.4932 14.008 94.429 14.0251C93.1977 14.0251 92.4915 13.7006 91.2512 13.7006C89.196 13.7006 86.6882 16.0151 86.7063 18.6969V24.4535C86.7153 26.2129 86.833 28.3225 87.8289 29.7317C87.8832 29.8171 87.8288 29.9282 87.7202 29.9282H82.1795C82.0799 29.9282 82.0074 29.8171 82.0708 29.7317C82.9399 28.4592 83.094 26.6485 83.1121 25.0257V16.8265C83.1121 15.5454 83.1392 13.4956 82.8042 12.7183C82.5959 12.2401 82.288 11.8472 81.8173 11.5397C81.7086 11.4714 81.763 11.3091 81.8898 11.3091H86.4709C86.6067 11.3091 86.7244 11.4116 86.7244 11.5483L86.7063 15.3148C87.4849 12.6501 89.0329 11.0444 91.586 11.0358C93.1885 11.0358 93.8495 11.7361 95.289 11.7276C96.6108 11.7276 97.0815 11.4116 97.4708 11.3091C97.5161 11.292 97.5614 11.3348 97.5433 11.386H97.5343Z" fill="#061F2F"/>
<path d="M80.088 4.38247V6.93618C80.088 7.04721 79.9341 7.10697 79.8526 7.02157C79.2913 6.44079 78.9201 6.2188 78.5218 6.0309C77.8156 5.69781 76.6567 5.6978 75.5613 5.6978L68.7983 5.72345C68.6625 5.72345 68.5629 5.82585 68.5629 5.95396L68.6082 15.4856C68.6082 15.6137 68.7169 15.7076 68.8527 15.7076L78.5218 15.6649C78.6576 15.6649 78.7662 15.7674 78.7662 15.887V16.9973C78.7662 17.1254 78.6667 17.2279 78.5308 17.2279L68.8618 17.2706C68.726 17.2706 68.6264 17.3731 68.6264 17.5012L68.6626 24.4364C68.6717 26.1872 68.7622 28.3054 69.758 29.7232C69.8124 29.8086 69.7579 29.9196 69.6493 29.9196H63.7373C63.6377 29.9196 63.5745 29.8086 63.6288 29.7232C64.4798 28.4848 64.6427 26.7339 64.6699 25.1368V9.65221C64.6699 9.3789 64.6699 9.06284 64.6699 8.73828C64.6699 7.55111 64.6517 6.15896 64.3892 5.54402C64.1809 5.07427 63.8732 4.71559 63.4025 4.40812C63.2938 4.3398 63.3482 4.15186 63.475 4.15186H79.8708C80.0066 4.15186 80.1062 4.25435 80.1062 4.37393L80.088 4.38247Z" fill="#061F2F"/>
<path d="M97.2354 20.7125C97.2625 26.469 101.246 30.4064 107.385 30.3808C109.757 30.3722 112.011 29.8769 114.021 28.6812C114.12 28.6214 114.175 28.5188 114.175 28.4163L114.157 25.2733C114.157 25.0854 113.894 25.017 113.794 25.1793C113.043 26.3409 111.087 28.7238 107.62 28.7323C103.835 28.7494 101.328 25.6747 101.192 21.0456C101.192 20.9431 101.282 20.8492 101.391 20.8492L114.998 20.7893C115.098 20.7893 115.179 20.721 115.189 20.6271C115.252 20.2513 115.279 19.773 115.279 19.2947C115.252 14.4776 112.183 10.9674 106.669 10.993C100.522 11.0186 97.2082 14.956 97.2444 20.7125H97.2354ZM101.427 19.2777C101.319 19.2777 101.228 19.1922 101.228 19.0897C101.282 15.4598 103.473 12.65 106.669 12.6414C109.675 12.6243 111.775 15.0072 111.775 19.0471C111.775 19.1495 111.685 19.2349 111.576 19.2349L101.418 19.2777H101.427Z" fill="#061F2F"/>
<path d="M118.43 20.6187C118.457 26.3753 122.44 30.3125 128.579 30.2869C130.951 30.2784 133.205 29.783 135.215 28.5873C135.315 28.5275 135.369 28.4251 135.369 28.3226L135.351 25.1795C135.351 24.9916 135.088 24.9233 134.989 25.0856C134.237 26.2471 132.282 28.6301 128.814 28.6386C125.03 28.6557 122.522 25.581 122.386 20.9518C122.386 20.8493 122.476 20.7554 122.585 20.7554L136.193 20.6956C136.292 20.6956 136.374 20.6273 136.383 20.5333C136.446 20.1575 136.473 19.6792 136.473 19.2009C136.446 14.3839 133.377 10.8736 127.863 10.8992C121.716 10.9249 118.403 14.8622 118.439 20.6187H118.43ZM122.621 19.1838C122.513 19.1838 122.422 19.0984 122.422 18.9959C122.477 15.3661 124.667 12.5562 127.863 12.5477C130.869 12.5306 132.969 14.9135 132.969 18.9533C132.969 19.0558 132.879 19.1412 132.77 19.1412L122.612 19.1838H122.621Z" fill="#061F2F"/>
<path d="M35.9067 17.5353C36.5133 16.1346 37.4368 14.8621 38.7134 13.9311C39.9447 13.0429 41.4475 12.4365 42.9776 12.1888C44.2088 11.9923 45.4311 11.8642 46.6352 11.5397C48.1924 11.1212 49.8764 10.4294 50.7727 9.08844C50.8089 9.02866 50.7726 8.96031 50.673 8.96031H43.1948C41.9364 8.96031 40.2253 8.91763 39.3743 9.09699C38.4146 9.30197 37.5275 9.7546 36.767 10.3439C35.246 11.5226 34.1867 13.2991 33.9875 15.1524C33.9875 15.2378 33.9694 15.3147 33.9694 15.4001C33.8336 17.4585 33.8427 18.415 33.8065 20.4733C33.7974 21.02 33.7883 21.3018 33.7883 21.9936C33.7883 22.062 33.6796 22.0705 33.6705 21.9936C33.4713 20.9431 33.245 19.9951 33.0368 19.2606C32.4936 17.3218 31.1175 14.6058 29.2253 13.06C25.5043 10.0194 20.561 8.93469 16.4054 8.96031L1.65743 8.98596C1.65743 8.98596 1.57588 9.02009 1.58493 9.06279C1.72979 10.7026 3.1875 11.8301 4.62701 12.4536C6.48298 13.2564 8.52888 13.5041 10.5478 13.6151C14.0515 13.8116 17.3652 13.2735 20.8236 14.0251C25.6401 15.0671 30.031 18.3638 32.3216 22.5061C32.5932 23.0014 32.8377 23.5054 33.0549 24.0178C33.1726 24.3082 33.2631 24.5047 33.4079 24.9232C33.4623 25.0684 33.5256 25.2391 33.6071 25.3758C33.6886 25.521 33.761 25.5809 33.8515 25.5809C34.0598 25.5809 34.1233 24.4705 34.2319 23.8556C34.4854 22.4549 34.5125 22.3609 34.8566 20.9773C35.0014 20.4136 35.1554 19.8414 35.3274 19.2863C35.4722 18.6969 35.6713 18.1076 35.9158 17.5353H35.9067Z" fill="#061F2F"/>
</g>
<defs>
<clipPath id="clip0_4576_37518">
<rect width="160" height="29.8891" fill="white" transform="translate(0 1.21393)"/>
</clipPath>
</defs>
</svg>
